<svg xmlns="http://www.w3.org/2000/svg" width="171" height="133"><path fill="#f5eee3" d="M122.684 28.148c7.67 23.307 7.67 46.935 0 70.241a5.324 5.324 0 01-3.983 3.548c-14.4 2.962-29.009 4.463-43.42 4.463-14.41 0-29.018-1.501-43.419-4.463a5.324 5.324 0 01-3.983-3.548c-7.67-23.306-7.67-46.934 0-70.24a5.326 5.326 0 013.983-3.549c14.4-2.961 29.009-4.463 43.42-4.463 14.41 0 29.019 1.502 43.419 4.463a5.326 5.326 0 013.983 3.548zm-5.053 1.663c-28.23-5.803-56.47-5.803-84.699 0-7.343 22.309-7.343 44.607 0 66.916 28.23 5.803 56.47 5.803 84.699 0 7.343-22.31 7.343-44.607 0-66.916zm47.241 85.525a10.632 10.632 0 01-9.062 8.1c-11.17 1.355-22.418 2.353-33.666 3.06.607.384.997.779.997 1.184 0 2.94-16.665 5.32-37.224 5.32-20.56 0-37.224-2.38-37.224-5.32 0-.405.39-.8.997-1.184-11.248-.707-22.496-1.705-33.667-3.06a10.632 10.632 0 01-9.061-8.1c-8.133-34.17-8.133-68.822 0-102.992a10.632 10.632 0 019.061-8.1A581.943 581.943 0 0185.917.002a581.91 581.91 0 0169.893 4.244 10.632 10.632 0 019.062 8.1c8.133 34.17 8.133 68.822 0 102.991zm-10.344-100.53c-45.74-5.553-91.481-5.553-137.222 0-7.779 32.69-7.779 65.379 0 98.067 45.74 5.555 91.481 5.555 137.222 0 7.779-32.688 7.779-65.378 0-98.066zM133.776 34.58c0-4.406 3.573-7.98 7.976-7.98a7.98 7.98 0 010 15.96c-4.403 0-7.976-3.574-7.976-7.98zm5.318 0a2.665 2.665 0 002.658 2.66 2.664 2.664 0 002.66-2.66 2.664 2.664 0 00-2.66-2.66 2.665 2.665 0 00-2.658 2.66zm10.635 63.84c0 1.47-1.189 2.66-2.659 2.66h-15.953a2.658 2.658 0 01-2.659-2.66c0-1.47 1.19-2.66 2.66-2.66h15.952c1.47 0 2.659 1.19 2.659 2.66zm5.318-15.96c0 1.47-1.19 2.66-2.66 2.66h-15.952a2.658 2.658 0 01-2.659-2.66c0-1.47 1.19-2.66 2.659-2.66h15.953c1.47 0 2.659 1.19 2.659 2.66zm0-15.96c0 1.47-1.19 2.66-2.66 2.66h-15.952a2.658 2.658 0 01-2.659-2.66c0-1.47 1.19-2.66 2.659-2.66h15.953c1.47 0 2.659 1.19 2.659 2.66zM75.28 44.077c0 1.466-1.194 2.702-2.658 2.754l-19.936 1.366c-1.454.15-2.804 1.455-3.002 2.904l-.888 10.08c-.057 1.464-1.298 2.66-2.752 2.66a2.506 2.506 0 01-2.519-2.656l1.625-14.822c.244-1.444 1.631-2.764 3.085-2.93l24.387-1.912a2.543 2.543 0 012.658 2.556z"/></svg>