<svg xmlns="http://www.w3.org/2000/svg" width="170" height="170"><path fill="#f5eee3" d="M163.879 116.586c-17.446 43.563-66.903 64.738-110.466 47.292C9.85 146.437-11.327 96.978 6.12 53.409 23.563 9.846 73.02-11.323 116.583 6.117c43.564 17.446 64.741 66.9 47.295 110.469zm-9.859-3.952c15.237-38.055-3.324-81.416-41.385-96.653C74.577.734 31.22 19.306 15.977 57.361c-15.236 38.06 3.327 81.416 41.385 96.658 38.056 15.237 81.416-3.324 96.658-41.385zM94.857 88.95c-2.178 5.44-8.362 8.09-13.81 5.907-5.44-2.178-8.088-8.36-5.907-13.805 2.18-5.445 8.365-8.096 13.81-5.912 5.446 2.183 8.088 8.365 5.907 13.81zm-4.929-1.976a5.322 5.322 0 00-2.953-6.907 5.326 5.326 0 00-6.908 2.956 5.325 5.325 0 002.956 6.907 5.323 5.323 0 006.905-2.956zm24.652 9.87c-6.542 16.336-25.088 24.276-41.427 17.73-16.33-6.539-24.275-25.084-17.733-41.42 6.54-16.332 25.088-24.277 41.424-17.731 16.336 6.539 24.276 25.084 17.736 41.42zm-9.858-3.947c4.35-10.87-.95-23.265-11.827-27.621-10.876-4.351-23.263.954-27.617 11.824-4.35 10.87.952 23.265 11.828 27.616 10.87 4.362 23.259-.949 27.616-11.82zm19.712 7.893c-4.336 10.829-12.657 18.888-22.604 23.188-.041.015-.065.056-.114.077a2.654 2.654 0 01-3.485-1.4 2.65 2.65 0 011.393-3.48c8.746-3.744 16.06-10.823 19.88-20.36l.005.004a2.648 2.648 0 013.452-1.478 2.656 2.656 0 011.478 3.45zm19.722 7.898c-6.503 16.238-18.988 28.332-33.906 34.773-.062.032-.106.089-.171.12a2.651 2.651 0 01-3.486-1.395 2.654 2.654 0 011.39-3.486c13.743-5.886 25.246-17.01 31.241-31.987a2.657 2.657 0 014.932 1.975zm-9.864-3.946c-5.419 13.536-15.822 23.607-28.25 28.974-.06.032-.089.079-.144.104a2.658 2.658 0 01-2.09-4.886h-.005c11.25-4.812 20.657-13.913 25.557-26.168a2.657 2.657 0 014.932 1.976zM70.374 50.826c-8.744 3.74-16.064 10.824-19.878 20.35h-.006a2.659 2.659 0 01-3.453 1.479 2.65 2.65 0 01-1.479-3.45h.006C49.899 58.383 58.22 50.319 68.168 46.02c.038-.016.064-.057.113-.072a2.648 2.648 0 013.488 1.39 2.662 2.662 0 01-1.395 3.49zm-8.36-19.53c-13.746 5.886-25.243 17.01-31.239 31.987a2.655 2.655 0 11-4.93-1.981C32.35 45.065 44.833 32.976 59.754 26.53c.057-.031.104-.089.166-.114a2.659 2.659 0 013.488 1.395 2.657 2.657 0 01-1.393 3.485zm4.178 9.77C54.95 45.874 45.538 54.98 40.637 67.236a2.656 2.656 0 11-4.932-1.976c5.42-13.53 15.823-23.613 28.254-28.986.057-.02.088-.073.14-.093a2.653 2.653 0 012.093 4.875z"/></svg>