<svg xmlns="http://www.w3.org/2000/svg" width="170" height="149"><path fill="#f5eee3" d="M169.424 35.296l-10.62 31.929a10.634 10.634 0 01-10.077 7.275c-1.849 0-3.683-.483-5.311-1.424v65.281c0 5.878-4.756 10.643-10.62 10.643h-95.59c-5.866 0-10.622-4.765-10.622-10.643v-65.28a10.619 10.619 0 01-5.31 1.423 10.634 10.634 0 01-10.077-7.276L.576 35.297a10.66 10.66 0 013.44-11.677L30.57 2.334A10.6 10.6 0 0137.205 0h95.59a10.6 10.6 0 016.636 2.334l26.552 21.285a10.66 10.66 0 013.441 11.677zM65.062 10.643C67.995 16.822 75.782 21.286 85 21.286c9.218 0 17.005-4.464 19.938-10.643zm94.286 21.286l-26.553-21.286h-22.181C107.653 19.805 97.358 26.607 85 26.607s-22.653-6.802-25.614-15.964h-22.18L10.651 31.929l10.622 31.928 15.931-10.642v85.142h95.59V53.215l15.932 10.642z"/></svg>